<mxfile host="app.diagrams.net" modified="2021-03-22T18:05:27.750Z" agent="5.0 (Windows NT 10.0; Win64; x64) AppleWebKit/537.36 (KHTML, like Gecko) Chrome/89.0.4389.90 Safari/537.36" etag="BHosmN2arne6FsLojWat" version="14.4.9" type="github">
  <diagram id="C5RBs43oDa-KdzZeNtuy" name="Page-1">
    <mxGraphModel dx="2889" dy="794" grid="1" gridSize="10" guides="1" tooltips="1" connect="1" arrows="1" fold="1" page="1" pageScale="1" pageWidth="827" pageHeight="1169" math="0" shadow="0">
      <root>
        <mxCell id="WIyWlLk6GJQsqaUBKTNV-0" />
        <mxCell id="WIyWlLk6GJQsqaUBKTNV-1" parent="WIyWlLk6GJQsqaUBKTNV-0" />
        <mxCell id="jm1poVZMwZUphOOb6DP0-37" value="" style="rounded=0;whiteSpace=wrap;html=1;strokeColor=#d6b656;fillColor=#fff2cc;" parent="WIyWlLk6GJQsqaUBKTNV-1" vertex="1">
          <mxGeometry x="-260" y="690" width="1710" height="200" as="geometry" />
        </mxCell>
        <mxCell id="jm1poVZMwZUphOOb6DP0-3" value="" style="rounded=0;whiteSpace=wrap;html=1;strokeColor=#6c8ebf;fillColor=#dae8fc;" parent="WIyWlLk6GJQsqaUBKTNV-1" vertex="1">
          <mxGeometry x="-260" y="190" width="1710" height="490" as="geometry" />
        </mxCell>
        <mxCell id="jm1poVZMwZUphOOb6DP0-16" value="" style="endArrow=none;dashed=1;html=1;dashPattern=1 3;strokeWidth=2;fontSize=14;entryX=1;entryY=0.5;entryDx=0;entryDy=0;exitX=0;exitY=1;exitDx=0;exitDy=0;" parent="WIyWlLk6GJQsqaUBKTNV-1" source="jm1poVZMwZUphOOb6DP0-0" target="jm1poVZMwZUphOOb6DP0-15" edge="1">
          <mxGeometry width="50" height="50" relative="1" as="geometry">
            <mxPoint x="560" y="550" as="sourcePoint" />
            <mxPoint x="610" y="500" as="targetPoint" />
          </mxGeometry>
        </mxCell>
        <mxCell id="jm1poVZMwZUphOOb6DP0-43" value="" style="rounded=0;whiteSpace=wrap;html=1;strokeColor=#9673a6;fillColor=#e1d5e7;" parent="WIyWlLk6GJQsqaUBKTNV-1" vertex="1">
          <mxGeometry x="610" y="899" width="840" height="401" as="geometry" />
        </mxCell>
        <mxCell id="jm1poVZMwZUphOOb6DP0-41" value="" style="rounded=0;whiteSpace=wrap;html=1;strokeColor=#82b366;fillColor=#d5e8d4;" parent="WIyWlLk6GJQsqaUBKTNV-1" vertex="1">
          <mxGeometry x="-260" y="1310" width="1710" height="460" as="geometry" />
        </mxCell>
        <mxCell id="jm1poVZMwZUphOOb6DP0-39" value="" style="rounded=0;whiteSpace=wrap;html=1;strokeColor=#9673a6;fillColor=#e1d5e7;" parent="WIyWlLk6GJQsqaUBKTNV-1" vertex="1">
          <mxGeometry x="-260" y="899" width="860" height="401" as="geometry" />
        </mxCell>
        <mxCell id="zkfFHV4jXpPFQw0GAbJ--0" value="automation-tool.js&#xa;" style="swimlane;fontStyle=2;align=center;verticalAlign=top;childLayout=stackLayout;horizontal=1;startSize=26;horizontalStack=0;resizeParent=1;resizeLast=0;collapsible=1;marginBottom=0;rounded=0;shadow=0;strokeWidth=1;" parent="WIyWlLk6GJQsqaUBKTNV-1" vertex="1">
          <mxGeometry x="600" y="10" width="160" height="140" as="geometry">
            <mxRectangle x="230" y="140" width="160" height="26" as="alternateBounds" />
          </mxGeometry>
        </mxCell>
        <mxCell id="zkfFHV4jXpPFQw0GAbJ--1" value="Inits CLI instance,&#xa;Waits for user input" style="text;align=left;verticalAlign=top;spacingLeft=4;spacingRight=4;overflow=hidden;rotatable=0;points=[[0,0.5],[1,0.5]];portConstraint=eastwest;fillColor=#ffe6cc;strokeColor=#d79b00;" parent="zkfFHV4jXpPFQw0GAbJ--0" vertex="1">
          <mxGeometry y="26" width="160" height="114" as="geometry" />
        </mxCell>
        <mxCell id="jm1poVZMwZUphOOb6DP0-0" value="commands/&#xa;generate/curbside-consult.js" style="swimlane;fontStyle=2;align=center;verticalAlign=top;childLayout=stackLayout;horizontal=1;startSize=40;horizontalStack=0;resizeParent=1;resizeLast=0;collapsible=1;marginBottom=0;rounded=0;shadow=0;strokeWidth=1;" parent="WIyWlLk6GJQsqaUBKTNV-1" vertex="1">
          <mxGeometry x="420" y="380" width="220" height="138" as="geometry">
            <mxRectangle x="420" y="380" width="160" height="26" as="alternateBounds" />
          </mxGeometry>
        </mxCell>
        <mxCell id="jm1poVZMwZUphOOb6DP0-1" value="Assigns actions through vorpal to &#xa;&#39;generate curbside &lt;articleID&gt;&#39;&#xa;This command triggers a series of &#xa;prompts and eventually calls &#xa;articles.spotlight.buildSpotlight" style="text;align=left;verticalAlign=top;spacingLeft=4;spacingRight=4;overflow=hidden;rotatable=0;points=[[0,0.5],[1,0.5]];portConstraint=eastwest;" parent="jm1poVZMwZUphOOb6DP0-0" vertex="1">
          <mxGeometry y="40" width="220" height="74" as="geometry" />
        </mxCell>
        <mxCell id="jm1poVZMwZUphOOb6DP0-4" value="&lt;b&gt;&lt;font style=&quot;font-size: 18px&quot;&gt;Commands Layer&lt;/font&gt;&lt;/b&gt;" style="text;html=1;strokeColor=none;fillColor=none;align=center;verticalAlign=middle;whiteSpace=wrap;rounded=0;fontSize=14;" parent="WIyWlLk6GJQsqaUBKTNV-1" vertex="1">
          <mxGeometry x="1241" y="380" width="160" height="20" as="geometry" />
        </mxCell>
        <mxCell id="jm1poVZMwZUphOOb6DP0-5" value="" style="endArrow=classic;html=1;fontSize=14;entryX=0.5;entryY=0;entryDx=0;entryDy=0;" parent="WIyWlLk6GJQsqaUBKTNV-1" target="jm1poVZMwZUphOOb6DP0-6" edge="1">
          <mxGeometry width="50" height="50" relative="1" as="geometry">
            <mxPoint x="680" y="140" as="sourcePoint" />
            <mxPoint x="680" y="177" as="targetPoint" />
          </mxGeometry>
        </mxCell>
        <mxCell id="jm1poVZMwZUphOOb6DP0-6" value="commands/index.js" style="swimlane;fontStyle=2;align=center;verticalAlign=top;childLayout=stackLayout;horizontal=1;startSize=26;horizontalStack=0;resizeParent=1;resizeLast=0;collapsible=1;marginBottom=0;rounded=0;shadow=0;strokeWidth=1;" parent="WIyWlLk6GJQsqaUBKTNV-1" vertex="1">
          <mxGeometry x="600" y="206" width="160" height="138" as="geometry">
            <mxRectangle x="230" y="140" width="160" height="26" as="alternateBounds" />
          </mxGeometry>
        </mxCell>
        <mxCell id="jm1poVZMwZUphOOb6DP0-7" value="Exports all CLI commands&#xa;as a single object read by&#xa;Vorpal" style="text;align=left;verticalAlign=top;spacingLeft=4;spacingRight=4;overflow=hidden;rotatable=0;points=[[0,0.5],[1,0.5]];portConstraint=eastwest;" parent="jm1poVZMwZUphOOb6DP0-6" vertex="1">
          <mxGeometry y="26" width="160" height="74" as="geometry" />
        </mxCell>
        <mxCell id="jm1poVZMwZUphOOb6DP0-9" value="" style="endArrow=classic;html=1;fontSize=14;exitX=0.006;exitY=0.703;exitDx=0;exitDy=0;exitPerimeter=0;entryX=0.5;entryY=0;entryDx=0;entryDy=0;" parent="WIyWlLk6GJQsqaUBKTNV-1" source="jm1poVZMwZUphOOb6DP0-7" target="jm1poVZMwZUphOOb6DP0-0" edge="1">
          <mxGeometry width="50" height="50" relative="1" as="geometry">
            <mxPoint x="560" y="420" as="sourcePoint" />
            <mxPoint x="610" y="370" as="targetPoint" />
          </mxGeometry>
        </mxCell>
        <mxCell id="jm1poVZMwZUphOOb6DP0-10" value="utils/cli-tools.js" style="swimlane;fontStyle=2;align=center;verticalAlign=top;childLayout=stackLayout;horizontal=1;startSize=26;horizontalStack=0;resizeParent=1;resizeLast=0;collapsible=1;marginBottom=0;rounded=0;shadow=0;strokeWidth=1;" parent="WIyWlLk6GJQsqaUBKTNV-1" vertex="1">
          <mxGeometry x="-240" y="200" width="160" height="138" as="geometry">
            <mxRectangle x="230" y="140" width="160" height="26" as="alternateBounds" />
          </mxGeometry>
        </mxCell>
        <mxCell id="jm1poVZMwZUphOOb6DP0-11" value="Exports functions for the CLI&#xa;such as error msgs and&#xa;reading/writing files." style="text;align=left;verticalAlign=top;spacingLeft=4;spacingRight=4;overflow=hidden;rotatable=0;points=[[0,0.5],[1,0.5]];portConstraint=eastwest;" parent="jm1poVZMwZUphOOb6DP0-10" vertex="1">
          <mxGeometry y="26" width="160" height="74" as="geometry" />
        </mxCell>
        <mxCell id="jm1poVZMwZUphOOb6DP0-14" value="config/index.js" style="swimlane;fontStyle=2;align=center;verticalAlign=top;childLayout=stackLayout;horizontal=1;startSize=26;horizontalStack=0;resizeParent=1;resizeLast=0;collapsible=1;marginBottom=0;rounded=0;shadow=0;strokeWidth=1;" parent="WIyWlLk6GJQsqaUBKTNV-1" vertex="1">
          <mxGeometry x="220" y="730" width="160" height="138" as="geometry">
            <mxRectangle x="230" y="140" width="160" height="26" as="alternateBounds" />
          </mxGeometry>
        </mxCell>
        <mxCell id="jm1poVZMwZUphOOb6DP0-15" value="Contains configuration &#xa;objects with instructions&#xa;that vary based on product.&#xa;These objects are modified&#xa;by user input, and passed&#xa;into article build functions" style="text;align=left;verticalAlign=top;spacingLeft=4;spacingRight=4;overflow=hidden;rotatable=0;points=[[0,0.5],[1,0.5]];portConstraint=eastwest;" parent="jm1poVZMwZUphOOb6DP0-14" vertex="1">
          <mxGeometry y="26" width="160" height="94" as="geometry" />
        </mxCell>
        <mxCell id="jm1poVZMwZUphOOb6DP0-17" value="" style="endArrow=none;dashed=1;html=1;dashPattern=1 3;strokeWidth=2;fontSize=14;entryX=0.994;entryY=0.919;entryDx=0;entryDy=0;exitX=0.005;exitY=0.405;exitDx=0;exitDy=0;exitPerimeter=0;entryPerimeter=0;" parent="WIyWlLk6GJQsqaUBKTNV-1" target="jm1poVZMwZUphOOb6DP0-11" edge="1">
          <mxGeometry width="50" height="50" relative="1" as="geometry">
            <mxPoint x="431.0999999999999" y="459.97" as="sourcePoint" />
            <mxPoint x="110" y="283" as="targetPoint" />
          </mxGeometry>
        </mxCell>
        <mxCell id="jm1poVZMwZUphOOb6DP0-19" value="commands/actions.js" style="swimlane;fontStyle=2;align=center;verticalAlign=top;childLayout=stackLayout;horizontal=1;startSize=26;horizontalStack=0;resizeParent=1;resizeLast=0;collapsible=1;marginBottom=0;rounded=0;shadow=0;strokeWidth=1;" parent="WIyWlLk6GJQsqaUBKTNV-1" vertex="1">
          <mxGeometry x="-240" y="356" width="160" height="140" as="geometry">
            <mxRectangle x="230" y="140" width="160" height="26" as="alternateBounds" />
          </mxGeometry>
        </mxCell>
        <mxCell id="jm1poVZMwZUphOOb6DP0-20" value="Contains templates used &#xa;by vorpal, triggered by&#xa;commands. Specifies &#xa;prompts to follow and &#xa;success messages to &#xa;dispatch." style="text;align=left;verticalAlign=top;spacingLeft=4;spacingRight=4;overflow=hidden;rotatable=0;points=[[0,0.5],[1,0.5]];portConstraint=eastwest;" parent="jm1poVZMwZUphOOb6DP0-19" vertex="1">
          <mxGeometry y="26" width="160" height="114" as="geometry" />
        </mxCell>
        <mxCell id="jm1poVZMwZUphOOb6DP0-21" value="commands/callbacks.js" style="swimlane;fontStyle=2;align=center;verticalAlign=top;childLayout=stackLayout;horizontal=1;startSize=26;horizontalStack=0;resizeParent=1;resizeLast=0;collapsible=1;marginBottom=0;rounded=0;shadow=0;strokeWidth=1;" parent="WIyWlLk6GJQsqaUBKTNV-1" vertex="1">
          <mxGeometry x="-40" y="518" width="160" height="140" as="geometry">
            <mxRectangle x="230" y="140" width="160" height="26" as="alternateBounds" />
          </mxGeometry>
        </mxCell>
        <mxCell id="jm1poVZMwZUphOOb6DP0-22" value="Contains functions to parse&#xa;the values inputted by the &#xa;user and assign them to the&#xa;config object used in the &#xa;builder." style="text;align=left;verticalAlign=top;spacingLeft=4;spacingRight=4;overflow=hidden;rotatable=0;points=[[0,0.5],[1,0.5]];portConstraint=eastwest;" parent="jm1poVZMwZUphOOb6DP0-21" vertex="1">
          <mxGeometry y="26" width="160" height="114" as="geometry" />
        </mxCell>
        <mxCell id="jm1poVZMwZUphOOb6DP0-23" value="" style="endArrow=none;dashed=1;html=1;dashPattern=1 3;strokeWidth=2;fontSize=14;entryX=1.006;entryY=0.298;entryDx=0;entryDy=0;exitX=0.005;exitY=0.405;exitDx=0;exitDy=0;exitPerimeter=0;entryPerimeter=0;" parent="WIyWlLk6GJQsqaUBKTNV-1" target="jm1poVZMwZUphOOb6DP0-20" edge="1">
          <mxGeometry width="50" height="50" relative="1" as="geometry">
            <mxPoint x="441.0999999999999" y="469.97" as="sourcePoint" />
            <mxPoint x="-70.96000000000004" y="304.0060000000001" as="targetPoint" />
          </mxGeometry>
        </mxCell>
        <mxCell id="jm1poVZMwZUphOOb6DP0-24" value="" style="endArrow=none;dashed=1;html=1;dashPattern=1 3;strokeWidth=2;fontSize=14;entryX=1;entryY=0.5;entryDx=0;entryDy=0;exitX=0.5;exitY=0;exitDx=0;exitDy=0;" parent="WIyWlLk6GJQsqaUBKTNV-1" source="jm1poVZMwZUphOOb6DP0-21" target="jm1poVZMwZUphOOb6DP0-20" edge="1">
          <mxGeometry width="50" height="50" relative="1" as="geometry">
            <mxPoint x="451.0999999999999" y="479.97" as="sourcePoint" />
            <mxPoint x="-69.03999999999996" y="425.972" as="targetPoint" />
          </mxGeometry>
        </mxCell>
        <mxCell id="jm1poVZMwZUphOOb6DP0-26" value="commands/prompts.js" style="swimlane;fontStyle=2;align=center;verticalAlign=top;childLayout=stackLayout;horizontal=1;startSize=26;horizontalStack=0;resizeParent=1;resizeLast=0;collapsible=1;marginBottom=0;rounded=0;shadow=0;strokeWidth=1;" parent="WIyWlLk6GJQsqaUBKTNV-1" vertex="1">
          <mxGeometry x="150" y="519" width="160" height="140" as="geometry">
            <mxRectangle x="230" y="140" width="160" height="26" as="alternateBounds" />
          </mxGeometry>
        </mxCell>
        <mxCell id="jm1poVZMwZUphOOb6DP0-27" value="A simple list of vorpal &#xa;user prompts to pass to &#xa;action templates." style="text;align=left;verticalAlign=top;spacingLeft=4;spacingRight=4;overflow=hidden;rotatable=0;points=[[0,0.5],[1,0.5]];portConstraint=eastwest;fillColor=#dae8fc;strokeColor=#000000;" parent="jm1poVZMwZUphOOb6DP0-26" vertex="1">
          <mxGeometry y="26" width="160" height="114" as="geometry" />
        </mxCell>
        <mxCell id="jm1poVZMwZUphOOb6DP0-28" value="" style="endArrow=none;dashed=1;html=1;dashPattern=1 3;strokeWidth=2;fontSize=14;exitX=0.5;exitY=0;exitDx=0;exitDy=0;" parent="WIyWlLk6GJQsqaUBKTNV-1" source="jm1poVZMwZUphOOb6DP0-26" edge="1">
          <mxGeometry width="50" height="50" relative="1" as="geometry">
            <mxPoint x="-30" y="611" as="sourcePoint" />
            <mxPoint x="-80" y="440" as="targetPoint" />
          </mxGeometry>
        </mxCell>
        <mxCell id="jm1poVZMwZUphOOb6DP0-31" value="articles/index.js" style="swimlane;fontStyle=2;align=center;verticalAlign=top;childLayout=stackLayout;horizontal=1;startSize=26;horizontalStack=0;resizeParent=1;resizeLast=0;collapsible=1;marginBottom=0;rounded=0;shadow=0;strokeWidth=1;" parent="WIyWlLk6GJQsqaUBKTNV-1" vertex="1">
          <mxGeometry x="790" y="930" width="160" height="138" as="geometry">
            <mxRectangle x="230" y="140" width="160" height="26" as="alternateBounds" />
          </mxGeometry>
        </mxCell>
        <mxCell id="jm1poVZMwZUphOOb6DP0-32" value="Exports all article builder &#xa;classes as a module." style="text;align=left;verticalAlign=top;spacingLeft=4;spacingRight=4;overflow=hidden;rotatable=0;points=[[0,0.5],[1,0.5]];portConstraint=eastwest;" parent="jm1poVZMwZUphOOb6DP0-31" vertex="1">
          <mxGeometry y="26" width="160" height="74" as="geometry" />
        </mxCell>
        <mxCell id="jm1poVZMwZUphOOb6DP0-33" value="" style="endArrow=classic;html=1;fontSize=14;entryX=0.5;entryY=0;entryDx=0;entryDy=0;exitX=0.5;exitY=1;exitDx=0;exitDy=0;" parent="WIyWlLk6GJQsqaUBKTNV-1" source="jm1poVZMwZUphOOb6DP0-0" target="jm1poVZMwZUphOOb6DP0-31" edge="1">
          <mxGeometry width="50" height="50" relative="1" as="geometry">
            <mxPoint x="540" y="520" as="sourcePoint" />
            <mxPoint x="610" y="630" as="targetPoint" />
          </mxGeometry>
        </mxCell>
        <mxCell id="jm1poVZMwZUphOOb6DP0-34" value="articles/spotlight.js" style="swimlane;fontStyle=2;align=center;verticalAlign=top;childLayout=stackLayout;horizontal=1;startSize=26;horizontalStack=0;resizeParent=1;resizeLast=0;collapsible=1;marginBottom=0;rounded=0;shadow=0;strokeWidth=1;" parent="WIyWlLk6GJQsqaUBKTNV-1" vertex="1">
          <mxGeometry x="790" y="1090" width="160" height="180" as="geometry">
            <mxRectangle x="230" y="140" width="160" height="26" as="alternateBounds" />
          </mxGeometry>
        </mxCell>
        <mxCell id="jm1poVZMwZUphOOb6DP0-35" value="Contains &#39;buildSpotlight&#39; &#xa;master function, which &#xa;calls separate functions&#xa;to build each section of the &#xa;output individually.&#xa;&#xa;Returns an object with &#xa;the checklist, xml string,&#xa;and the object with program&#xa;data" style="text;align=left;verticalAlign=top;spacingLeft=4;spacingRight=4;overflow=hidden;rotatable=0;points=[[0,0.5],[1,0.5]];portConstraint=eastwest;" parent="jm1poVZMwZUphOOb6DP0-34" vertex="1">
          <mxGeometry y="26" width="160" height="154" as="geometry" />
        </mxCell>
        <mxCell id="jm1poVZMwZUphOOb6DP0-36" value="" style="endArrow=classic;html=1;fontSize=14;entryX=0.5;entryY=0;entryDx=0;entryDy=0;exitX=0.5;exitY=1;exitDx=0;exitDy=0;" parent="WIyWlLk6GJQsqaUBKTNV-1" source="jm1poVZMwZUphOOb6DP0-31" target="jm1poVZMwZUphOOb6DP0-34" edge="1">
          <mxGeometry width="50" height="50" relative="1" as="geometry">
            <mxPoint x="540" y="528" as="sourcePoint" />
            <mxPoint x="540" y="720" as="targetPoint" />
          </mxGeometry>
        </mxCell>
        <mxCell id="jm1poVZMwZUphOOb6DP0-38" value="&lt;b&gt;&lt;font style=&quot;font-size: 18px&quot;&gt;Shared Config/Utils&lt;/font&gt;&lt;/b&gt;" style="text;html=1;strokeColor=none;fillColor=none;align=center;verticalAlign=middle;whiteSpace=wrap;rounded=0;fontSize=14;" parent="WIyWlLk6GJQsqaUBKTNV-1" vertex="1">
          <mxGeometry x="1241" y="770" width="169" height="20" as="geometry" />
        </mxCell>
        <mxCell id="jm1poVZMwZUphOOb6DP0-40" value="&lt;b&gt;&lt;font style=&quot;font-size: 18px&quot;&gt;Constructor Layer&lt;/font&gt;&lt;/b&gt;" style="text;html=1;strokeColor=none;fillColor=none;align=center;verticalAlign=middle;whiteSpace=wrap;rounded=0;fontSize=14;" parent="WIyWlLk6GJQsqaUBKTNV-1" vertex="1">
          <mxGeometry x="1210" y="1060" width="191" height="20" as="geometry" />
        </mxCell>
        <mxCell id="jm1poVZMwZUphOOb6DP0-42" value="&lt;b&gt;&lt;font style=&quot;font-size: 18px&quot;&gt;Input File Parsing Layer&lt;/font&gt;&lt;/b&gt;" style="text;html=1;strokeColor=none;fillColor=none;align=center;verticalAlign=middle;whiteSpace=wrap;rounded=0;fontSize=14;" parent="WIyWlLk6GJQsqaUBKTNV-1" vertex="1">
          <mxGeometry x="1190" y="1490" width="211" height="20" as="geometry" />
        </mxCell>
        <mxCell id="jm1poVZMwZUphOOb6DP0-44" value="&lt;font style=&quot;font-size: 18px&quot;&gt;&lt;u&gt;Assigning Values&lt;/u&gt;&lt;/font&gt;" style="text;html=1;strokeColor=none;fillColor=none;align=center;verticalAlign=middle;whiteSpace=wrap;rounded=0;fontSize=14;" parent="WIyWlLk6GJQsqaUBKTNV-1" vertex="1">
          <mxGeometry x="1050" y="920" width="191" height="20" as="geometry" />
        </mxCell>
        <mxCell id="jm1poVZMwZUphOOb6DP0-45" value="&lt;font style=&quot;font-size: 18px&quot;&gt;&lt;u&gt;Configuring Data&lt;/u&gt;&lt;/font&gt;" style="text;html=1;strokeColor=none;fillColor=none;align=center;verticalAlign=middle;whiteSpace=wrap;rounded=0;fontSize=14;" parent="WIyWlLk6GJQsqaUBKTNV-1" vertex="1">
          <mxGeometry x="40" y="920" width="191" height="20" as="geometry" />
        </mxCell>
        <mxCell id="jm1poVZMwZUphOOb6DP0-47" value="prodticket/index.js" style="swimlane;fontStyle=2;align=center;verticalAlign=top;childLayout=stackLayout;horizontal=1;startSize=26;horizontalStack=0;resizeParent=1;resizeLast=0;collapsible=1;marginBottom=0;rounded=0;shadow=0;strokeWidth=1;" parent="WIyWlLk6GJQsqaUBKTNV-1" vertex="1">
          <mxGeometry x="390" y="920" width="170" height="138" as="geometry">
            <mxRectangle x="230" y="140" width="160" height="26" as="alternateBounds" />
          </mxGeometry>
        </mxCell>
        <mxCell id="jm1poVZMwZUphOOb6DP0-48" value="Exports prodticket module,&#xa;which contains various &#xa;functions for locating specific&#xa;sections of the input file" style="text;align=left;verticalAlign=top;spacingLeft=4;spacingRight=4;overflow=hidden;rotatable=0;points=[[0,0.5],[1,0.5]];portConstraint=eastwest;" parent="jm1poVZMwZUphOOb6DP0-47" vertex="1">
          <mxGeometry y="26" width="170" height="74" as="geometry" />
        </mxCell>
        <mxCell id="jm1poVZMwZUphOOb6DP0-49" value="" style="endArrow=none;dashed=1;html=1;dashPattern=1 3;strokeWidth=2;fontSize=14;entryX=0.5;entryY=1;entryDx=0;entryDy=0;exitX=0.5;exitY=0;exitDx=0;exitDy=0;" parent="WIyWlLk6GJQsqaUBKTNV-1" source="jm1poVZMwZUphOOb6DP0-47" target="jm1poVZMwZUphOOb6DP0-14" edge="1">
          <mxGeometry width="50" height="50" relative="1" as="geometry">
            <mxPoint x="560" y="1090" as="sourcePoint" />
            <mxPoint x="610" y="1040" as="targetPoint" />
          </mxGeometry>
        </mxCell>
        <mxCell id="jm1poVZMwZUphOOb6DP0-50" value="utils/string-ops.js" style="swimlane;fontStyle=2;align=center;verticalAlign=top;childLayout=stackLayout;horizontal=1;startSize=26;horizontalStack=0;resizeParent=1;resizeLast=0;collapsible=1;marginBottom=0;rounded=0;shadow=0;strokeWidth=1;" parent="WIyWlLk6GJQsqaUBKTNV-1" vertex="1">
          <mxGeometry x="71" y="960" width="160" height="140" as="geometry">
            <mxRectangle x="230" y="140" width="160" height="26" as="alternateBounds" />
          </mxGeometry>
        </mxCell>
        <mxCell id="jm1poVZMwZUphOOb6DP0-51" value="Generic functions for parsing&#xa;strings, such as removing&#xa;all instances of &lt;regex&gt; from&#xa;&lt;string&gt;, or checking if a &#xa;block of text is empty." style="text;align=left;verticalAlign=top;spacingLeft=4;spacingRight=4;overflow=hidden;rotatable=0;points=[[0,0.5],[1,0.5]];portConstraint=eastwest;" parent="jm1poVZMwZUphOOb6DP0-50" vertex="1">
          <mxGeometry y="26" width="160" height="114" as="geometry" />
        </mxCell>
        <mxCell id="jm1poVZMwZUphOOb6DP0-52" value="" style="endArrow=none;dashed=1;html=1;dashPattern=1 3;strokeWidth=2;fontSize=14;entryX=1;entryY=0.5;entryDx=0;entryDy=0;exitX=0;exitY=0.649;exitDx=0;exitDy=0;exitPerimeter=0;" parent="WIyWlLk6GJQsqaUBKTNV-1" source="jm1poVZMwZUphOOb6DP0-48" target="jm1poVZMwZUphOOb6DP0-51" edge="1">
          <mxGeometry width="50" height="50" relative="1" as="geometry">
            <mxPoint x="485" y="930" as="sourcePoint" />
            <mxPoint x="310" y="878" as="targetPoint" />
          </mxGeometry>
        </mxCell>
        <mxCell id="jm1poVZMwZUphOOb6DP0-53" value="prodticket/find-learning-objectives.js" style="swimlane;fontStyle=2;align=center;verticalAlign=top;childLayout=stackLayout;horizontal=1;startSize=26;horizontalStack=0;resizeParent=1;resizeLast=0;collapsible=1;marginBottom=0;rounded=0;shadow=0;strokeWidth=1;" parent="WIyWlLk6GJQsqaUBKTNV-1" vertex="1">
          <mxGeometry x="360" y="1080" width="200" height="138" as="geometry">
            <mxRectangle x="230" y="140" width="160" height="26" as="alternateBounds" />
          </mxGeometry>
        </mxCell>
        <mxCell id="jm1poVZMwZUphOOb6DP0-54" value="One example of a prodticket &#xa;finder module: " style="text;align=left;verticalAlign=top;spacingLeft=4;spacingRight=4;overflow=hidden;rotatable=0;points=[[0,0.5],[1,0.5]];portConstraint=eastwest;" parent="jm1poVZMwZUphOOb6DP0-53" vertex="1">
          <mxGeometry y="26" width="200" height="74" as="geometry" />
        </mxCell>
        <mxCell id="jm1poVZMwZUphOOb6DP0-55" value="" style="endArrow=classic;html=1;fontSize=14;exitX=0.5;exitY=1;exitDx=0;exitDy=0;" parent="WIyWlLk6GJQsqaUBKTNV-1" source="jm1poVZMwZUphOOb6DP0-47" target="jm1poVZMwZUphOOb6DP0-53" edge="1">
          <mxGeometry width="50" height="50" relative="1" as="geometry">
            <mxPoint x="880" y="1078" as="sourcePoint" />
            <mxPoint x="880" y="1130" as="targetPoint" />
          </mxGeometry>
        </mxCell>
        <mxCell id="jm1poVZMwZUphOOb6DP0-56" value="classes/prof_article.js&#xa;" style="swimlane;fontStyle=2;align=center;verticalAlign=top;childLayout=stackLayout;horizontal=1;startSize=26;horizontalStack=0;resizeParent=1;resizeLast=0;collapsible=1;marginBottom=0;rounded=0;shadow=0;strokeWidth=1;" parent="WIyWlLk6GJQsqaUBKTNV-1" vertex="1">
          <mxGeometry x="740" y="1330" width="160" height="180" as="geometry">
            <mxRectangle x="230" y="140" width="160" height="26" as="alternateBounds" />
          </mxGeometry>
        </mxCell>
        <mxCell id="jm1poVZMwZUphOOb6DP0-57" value="Creates an object with &#xa;" style="text;align=left;verticalAlign=top;spacingLeft=4;spacingRight=4;overflow=hidden;rotatable=0;points=[[0,0.5],[1,0.5]];portConstraint=eastwest;" parent="jm1poVZMwZUphOOb6DP0-56" vertex="1">
          <mxGeometry y="26" width="160" height="154" as="geometry" />
        </mxCell>
        <mxCell id="jm1poVZMwZUphOOb6DP0-59" value="" style="endArrow=classic;startArrow=classic;html=1;fontSize=14;entryX=0.563;entryY=1.019;entryDx=0;entryDy=0;entryPerimeter=0;" parent="WIyWlLk6GJQsqaUBKTNV-1" source="jm1poVZMwZUphOOb6DP0-56" target="jm1poVZMwZUphOOb6DP0-35" edge="1">
          <mxGeometry width="50" height="50" relative="1" as="geometry">
            <mxPoint x="560" y="1300" as="sourcePoint" />
            <mxPoint x="610" y="1250" as="targetPoint" />
          </mxGeometry>
        </mxCell>
        <mxCell id="Wx1izpBSVzJIBonuxTEK-0" value="2. command is issued" style="text;html=1;strokeColor=none;fillColor=none;align=center;verticalAlign=middle;whiteSpace=wrap;rounded=0;fontColor=#FF0D05;" vertex="1" parent="WIyWlLk6GJQsqaUBKTNV-1">
          <mxGeometry x="420" y="336" width="160" height="20" as="geometry" />
        </mxCell>
        <mxCell id="Wx1izpBSVzJIBonuxTEK-2" value="1. app is initialized" style="text;html=1;strokeColor=none;fillColor=none;align=center;verticalAlign=middle;whiteSpace=wrap;rounded=0;fontColor=#FF1414;" vertex="1" parent="WIyWlLk6GJQsqaUBKTNV-1">
          <mxGeometry x="540" y="170" width="160" height="20" as="geometry" />
        </mxCell>
        <mxCell id="Wx1izpBSVzJIBonuxTEK-3" value="2a. app issues a series of prompts determined by product" style="text;html=1;strokeColor=none;fillColor=none;align=center;verticalAlign=middle;whiteSpace=wrap;rounded=0;fontColor=#FF0D05;" vertex="1" parent="WIyWlLk6GJQsqaUBKTNV-1">
          <mxGeometry x="45.5" y="390" width="180" height="30" as="geometry" />
        </mxCell>
        <mxCell id="Wx1izpBSVzJIBonuxTEK-4" value="2b. a program config object is generated based on prompts" style="text;html=1;strokeColor=none;fillColor=none;align=center;verticalAlign=middle;whiteSpace=wrap;rounded=0;fontColor=#FF0D05;" vertex="1" parent="WIyWlLk6GJQsqaUBKTNV-1">
          <mxGeometry x="334" y="620" width="160" height="20" as="geometry" />
        </mxCell>
        <mxCell id="Wx1izpBSVzJIBonuxTEK-5" value="3. buildSpotlight is called to construct output" style="text;html=1;strokeColor=none;fillColor=none;align=center;verticalAlign=middle;whiteSpace=wrap;rounded=0;fontColor=#FF0D05;" vertex="1" parent="WIyWlLk6GJQsqaUBKTNV-1">
          <mxGeometry x="700" y="750" width="160" height="20" as="geometry" />
        </mxCell>
        <mxCell id="Wx1izpBSVzJIBonuxTEK-6" value="classes/spotlight_checklist.js" style="swimlane;fontStyle=2;align=center;verticalAlign=top;childLayout=stackLayout;horizontal=1;startSize=26;horizontalStack=0;resizeParent=1;resizeLast=0;collapsible=1;marginBottom=0;rounded=0;shadow=0;strokeWidth=1;" vertex="1" parent="WIyWlLk6GJQsqaUBKTNV-1">
          <mxGeometry x="560" y="1330" width="160" height="180" as="geometry">
            <mxRectangle x="230" y="140" width="160" height="26" as="alternateBounds" />
          </mxGeometry>
        </mxCell>
        <mxCell id="Wx1izpBSVzJIBonuxTEK-7" value="Creates an object with &#xa;" style="text;align=left;verticalAlign=top;spacingLeft=4;spacingRight=4;overflow=hidden;rotatable=0;points=[[0,0.5],[1,0.5]];portConstraint=eastwest;" vertex="1" parent="Wx1izpBSVzJIBonuxTEK-6">
          <mxGeometry y="26" width="160" height="154" as="geometry" />
        </mxCell>
        <mxCell id="Wx1izpBSVzJIBonuxTEK-8" value="classes/article_checklist.js" style="swimlane;fontStyle=2;align=center;verticalAlign=top;childLayout=stackLayout;horizontal=1;startSize=26;horizontalStack=0;resizeParent=1;resizeLast=0;collapsible=1;marginBottom=0;rounded=0;shadow=0;strokeWidth=1;" vertex="1" parent="WIyWlLk6GJQsqaUBKTNV-1">
          <mxGeometry x="560" y="1570" width="160" height="180" as="geometry">
            <mxRectangle x="230" y="140" width="160" height="26" as="alternateBounds" />
          </mxGeometry>
        </mxCell>
        <mxCell id="Wx1izpBSVzJIBonuxTEK-9" value="Creates an object with &#xa;" style="text;align=left;verticalAlign=top;spacingLeft=4;spacingRight=4;overflow=hidden;rotatable=0;points=[[0,0.5],[1,0.5]];portConstraint=eastwest;" vertex="1" parent="Wx1izpBSVzJIBonuxTEK-8">
          <mxGeometry y="26" width="160" height="154" as="geometry" />
        </mxCell>
        <mxCell id="Wx1izpBSVzJIBonuxTEK-10" value="" style="endArrow=classic;startArrow=classic;html=1;fontSize=14;entryX=0.506;entryY=1.019;entryDx=0;entryDy=0;entryPerimeter=0;exitX=0.5;exitY=0;exitDx=0;exitDy=0;" edge="1" parent="WIyWlLk6GJQsqaUBKTNV-1" source="Wx1izpBSVzJIBonuxTEK-6" target="jm1poVZMwZUphOOb6DP0-35">
          <mxGeometry width="50" height="50" relative="1" as="geometry">
            <mxPoint x="866.7651658348859" y="1340" as="sourcePoint" />
            <mxPoint x="890.0799999999999" y="1282.926" as="targetPoint" />
          </mxGeometry>
        </mxCell>
        <mxCell id="Wx1izpBSVzJIBonuxTEK-11" value="" style="endArrow=classic;startArrow=classic;html=1;fontSize=14;entryX=0.488;entryY=1.026;entryDx=0;entryDy=0;entryPerimeter=0;exitX=0.5;exitY=0;exitDx=0;exitDy=0;" edge="1" parent="WIyWlLk6GJQsqaUBKTNV-1" source="Wx1izpBSVzJIBonuxTEK-8" target="Wx1izpBSVzJIBonuxTEK-7">
          <mxGeometry width="50" height="50" relative="1" as="geometry">
            <mxPoint x="876.7651658348859" y="1350" as="sourcePoint" />
            <mxPoint x="900.0799999999999" y="1292.926" as="targetPoint" />
          </mxGeometry>
        </mxCell>
      </root>
    </mxGraphModel>
  </diagram>
</mxfile>
